<svg width="80%" height="80%" viewBox="0 0 78 70" fill="none" xmlns="http://www.w3.org/2000/svg">
<g filter="url(#filter0_dd_132_5)">
<path d="M44.7617 34.6497C44.7617 31.1901 44.3315 28.1629 43.4711 25.5682C42.6107 22.907 41.3532 21.5764 39.6986 21.5764C38.5734 21.5764 37.5806 22.2417 36.7202 23.5723C35.8598 24.9029 35.231 26.5329 34.8339 28.4623C34.4368 30.3917 34.2383 32.4542 34.2383 34.6497C34.2383 38.0428 34.7016 41.0367 35.6282 43.6314C36.5547 46.1595 37.8785 47.4236 39.5993 47.4236C41.3201 47.4236 42.6107 46.1595 43.4711 43.6314C44.3315 41.1032 44.7617 38.1093 44.7617 34.6497ZM39.5993 59C34.4368 59 29.7708 58.0686 25.6011 56.2057C21.4976 54.3428 18.1883 51.5485 15.6733 47.8228C13.2244 44.0971 12 39.7393 12 34.7495C12 27.165 14.5812 21.1439 19.7437 16.6864C24.9061 12.2288 31.5247 10 39.5993 10C47.6739 10 54.2593 12.2288 59.3556 16.6864C64.4519 21.1439 67 27.165 67 34.7495C67 42.2675 64.3857 48.1887 59.157 52.5132C53.9946 56.8377 47.4753 59 39.5993 59Z" fill=""/>
</g>
<defs>
<filter id="filter0_dd_132_5" x="6" y="8" width="67" height="61" filterUnits="userSpaceOnUse" color-interpolation-filters="sRGB">
<feFlood flood-opacity="0" result="BackgroundImageFix"/>
<feColorMatrix in="SourceAlpha" type="matrix" values="0 0 0 0 0 0 0 0 0 0 0 0 0 0 0 0 0 0 127 0" result="hardAlpha"/>
<feOffset dy="4"/>
<feGaussianBlur stdDeviation="3"/>
<feColorMatrix type="matrix" values="0 0 0 0 0 0 0 0 0 0 0 0 0 0 0 0 0 0 0.1 0"/>
<feBlend mode="normal" in2="BackgroundImageFix" result="effect1_dropShadow_132_5"/>
<feColorMatrix in="SourceAlpha" type="matrix" values="0 0 0 0 0 0 0 0 0 0 0 0 0 0 0 0 0 0 127 0" result="hardAlpha"/>
<feOffset dy="2"/>
<feGaussianBlur stdDeviation="2"/>
<feColorMatrix type="matrix" values="0 0 0 0 0 0 0 0 0 0 0 0 0 0 0 0 0 0 0.06 0"/>
<feBlend mode="normal" in2="effect1_dropShadow_132_5" result="effect2_dropShadow_132_5"/>
<feBlend mode="normal" in="SourceGraphic" in2="effect2_dropShadow_132_5" result="shape"/>
</filter>
</defs>
</svg>
