<svg width="80%" height="80%" viewBox="0 0 78 70" fill="none" xmlns="http://www.w3.org/2000/svg">
<g filter="url(#filter0_dd_139_5)">
<path d="M38.9671 49.1371C38.8324 49.3447 38.3947 49.8292 37.6541 50.5905C36.9134 51.3518 36.4084 51.8708 36.1391 52.1477C35.9371 52.4245 35.4657 52.9435 34.725 53.7048C34.0517 54.3969 33.513 54.916 33.109 55.262C32.7724 55.5388 32.2674 55.9541 31.594 56.5078C30.9207 57.0614 30.3147 57.4767 29.776 57.7535C29.3047 57.9611 28.766 58.238 28.16 58.584C27.554 58.8608 26.948 59.0684 26.342 59.2069C25.736 59.3453 25.13 59.4145 24.524 59.4145C21.5614 59.4145 18.7333 58.1687 16.04 55.6773C13.3467 53.1858 12 50.5213 12 47.6837C12 46.9917 12.2693 46.2304 12.808 45.3999C13.414 44.5002 14.2557 43.5313 15.333 42.4931C16.4777 41.455 17.454 40.5553 18.262 39.794C19.1373 39.0327 20.2147 38.133 21.494 37.0949C22.8407 36.0568 23.6487 35.3993 23.918 35.1225C23.3794 34.7072 22.605 34.0844 21.595 33.2539C20.585 32.3542 19.7433 31.5929 19.07 30.97C18.3967 30.3471 17.6223 29.5859 16.747 28.6862C15.8717 27.7172 15.1647 26.8175 14.626 25.987C14.1547 25.0873 13.717 24.0838 13.313 22.9765C12.909 21.8692 12.707 20.7272 12.707 19.5507C12.707 17.1976 13.818 15.0176 16.04 13.0105C18.262 11.0035 20.5514 10 22.908 10C24.1874 10 25.433 10.2768 26.645 10.8305C27.857 11.3842 29.0017 12.1801 30.079 13.2182C31.2237 14.1871 32.2337 15.1906 33.109 16.2287C34.0517 17.1976 35.0617 18.3742 36.1391 19.7583C37.2837 21.0733 38.2264 22.0768 38.9671 22.7689C39.7077 22.0768 40.8524 20.7964 42.4011 18.9278C43.9497 17.0592 45.2291 15.6058 46.2391 14.5677C47.2491 13.4604 48.5621 12.4223 50.1781 11.4534C51.7941 10.4845 53.3764 10 54.9251 10C55.8678 10 56.8441 10.2076 57.8541 10.6229C58.8641 10.9689 59.7731 11.488 60.5811 12.1801C61.4564 12.8029 62.2308 13.5296 62.9041 14.3601C63.6448 15.1214 64.1834 15.9865 64.5201 16.9554C64.9241 17.8551 65.1261 18.7548 65.1261 19.6545C65.1261 20.831 64.9241 22.0076 64.5201 23.1841C64.1161 24.2914 63.3418 25.5372 62.1971 26.9213C61.0524 28.2363 60.2108 29.2052 59.6721 29.8281C59.2008 30.3817 58.1234 31.4199 56.4401 32.9424C54.8241 34.3958 54.0161 35.1225 54.0161 35.1225C54.2181 35.3993 54.9924 36.0568 56.3391 37.0949C57.6858 38.133 58.7631 39.0327 59.5711 39.794C60.4464 40.5553 61.4228 41.455 62.5001 42.4931C63.5774 43.5313 64.3854 44.5002 64.9241 45.3999C65.5301 46.2304 65.8331 46.9917 65.8331 47.6837C65.8331 50.5213 64.4864 53.1858 61.7931 55.6773C59.0998 58.1687 56.2718 59.4145 53.3091 59.4145C52.6358 59.4145 51.9287 59.3107 51.1881 59.1031C50.5147 58.8954 49.8751 58.6878 49.2691 58.4802C48.7304 58.2033 48.0907 57.7881 47.3501 57.2344C46.6094 56.6808 46.0034 56.2309 45.5321 55.8849C45.1281 55.5388 44.5221 54.9852 43.7141 54.2239C42.9734 53.4626 42.4347 52.9435 42.0981 52.6667C41.8287 52.3207 41.2901 51.6978 40.4821 50.7981C39.6741 49.8984 39.1691 49.3447 38.9671 49.1371Z" fill="#1E40AF"/>
</g>
<defs>
<filter id="filter0_dd_139_5" x="6" y="8" width="65.8331" height="61.4145" filterUnits="userSpaceOnUse" color-interpolation-filters="sRGB">
<feFlood flood-opacity="0" result="BackgroundImageFix"/>
<feColorMatrix in="SourceAlpha" type="matrix" values="0 0 0 0 0 0 0 0 0 0 0 0 0 0 0 0 0 0 127 0" result="hardAlpha"/>
<feOffset dy="4"/>
<feGaussianBlur stdDeviation="3"/>
<feColorMatrix type="matrix" values="0 0 0 0 0 0 0 0 0 0 0 0 0 0 0 0 0 0 0.1 0"/>
<feBlend mode="normal" in2="BackgroundImageFix" result="effect1_dropShadow_139_5"/>
<feColorMatrix in="SourceAlpha" type="matrix" values="0 0 0 0 0 0 0 0 0 0 0 0 0 0 0 0 0 0 127 0" result="hardAlpha"/>
<feOffset dy="2"/>
<feGaussianBlur stdDeviation="2"/>
<feColorMatrix type="matrix" values="0 0 0 0 0 0 0 0 0 0 0 0 0 0 0 0 0 0 0.06 0"/>
<feBlend mode="normal" in2="effect1_dropShadow_139_5" result="effect2_dropShadow_139_5"/>
<feBlend mode="normal" in="SourceGraphic" in2="effect2_dropShadow_139_5" result="shape"/>
</filter>
</defs>
</svg>
